<svg id="Capa_1" enable-background="new 0 0 512 512" height="512" viewBox="0 0 512 512" width="512" xmlns="http://www.w3.org/2000/svg"><g><circle cx="256" cy="256" fill="#d5e8fe" r="256"/><path d="m512 256c0-140.61-115.39-256-256-256v512c140.61 0 256-115.39 256-256z" fill="#b5dbff"/><circle cx="256" cy="256" fill="#edf5ff" r="226"/><path d="m482 256c0-124.072-101.928-226-226-226v452c124.072 0 226-101.928 226-226z" fill="#d5e8fe"/><path d="m241 346c0-2.8-.333-5.517-.826-8.177l28.277-16.329-15-25.986-28.411 16.406c-4.125-3.519-8.835-6.293-14.041-8.15v-32.764h-30v32.763c-5.206 1.857-9.915 4.631-14.041 8.15l-28.411-16.406-15 25.986 28.277 16.329c-.491 2.661-.824 5.378-.824 8.178s.333 5.517.826 8.177l-28.277 16.329 15 25.986 28.411-16.406c4.125 3.519 8.835 6.293 14.041 8.15v32.764h30v-32.763c5.206-1.857 9.915-4.631 14.041-8.15l28.411 16.406 15-25.986-28.277-16.329c.491-2.661.824-5.378.824-8.178z" fill="#9df"/><circle cx="196" cy="346" fill="#80bfff" r="15"/><path d="m451 211v-30h-32.763c-2.168-6.081-5.499-11.591-9.89-16.15l11.071-22.141-26.836-13.418-11.129 22.26c-1.807-.221-3.585-.551-5.453-.551s-3.646.33-5.453.551l-11.129-22.26-26.836 13.418 11.071 22.141c-4.391 4.559-7.722 10.069-9.89 16.15h-32.763v30h30v30h-30v30h30v30h-30v30h32.763c2.168 6.081 5.499 11.591 9.89 16.15l-11.071 22.141 26.836 13.418 11.129-22.26c1.807.221 3.585.551 5.453.551s3.646-.33 5.453-.551l11.129 22.26 26.836-13.418-11.071-22.141c4.391-4.559 7.722-10.069 9.89-16.15h32.763v-30h-30v-30h30v-30h-30v-30z" fill="#75c34e"/><g><path d="m376 181c-8.276 0-15 6.724-15 15v120c0 8.276 6.724 15 15 15s15-6.724 15-15v-120c0-8.276-6.724-15-15-15z" fill="#32a632"/></g><g><path d="m301 91v30c-17.999 0-34.2-8.101-45-20.7-9.6-10.501-15-24.3-15-39.3h30c0 16.5 13.5 30 30 30z" fill="#9df"/></g><g><path d="m61 301v-30c16.538 0 30-13.462 30-30h30c0 33.091-26.909 60-60 60z" fill="#ffe477"/></g><g><path d="m331 451c-33.091 0-60-26.909-60-60h30c0 16.538 13.462 30 30 30z" fill="#ffcd00"/></g><path d="m211 166c0-2.8-.333-5.517-.826-8.177l28.277-16.329-15-25.986-28.411 16.406c-4.125-3.519-8.835-6.293-14.041-8.15v-32.764h-30v32.763c-5.206 1.857-9.915 4.631-14.041 8.15l-28.411-16.406-15 25.986 28.277 16.329c-.491 2.661-.824 5.378-.824 8.178s.333 5.517.826 8.177l-28.277 16.329 15 25.986 28.411-16.406c4.125 3.519 8.835 6.293 14.041 8.15v32.764h30v-32.763c5.206-1.857 9.915-4.631 14.041-8.15l28.411 16.406 15-25.986-28.277-16.329c.491-2.661.824-5.378.824-8.178z" fill="#b6de3d"/><circle cx="166" cy="166" fill="#75c34e" r="15"/><path d="m301 91v30c-17.999 0-34.2-8.101-45-20.7v-39.3h15c0 16.5 13.5 30 30 30z" fill="#80bfff"/></g></svg>